# xmcd
#
# Track frame offsets: 
#        150
#        15469
#        34666
#        59072
#        82160
#        104184
#        125475
#        148761
#        171076
#        195495
#        216558
#        228316
#        246891
#
# Disc length: 3515 seconds
#
# Revision: 0
# Processed by: cddbd v1.5.2PL0 Copyright (c) Steve Scherf et al.
# Submitted via: ExactAudioCopy v0.99pb5
#
DISCID=c40db90d
DTITLE=Phi Nhung Truong Vu - Gai nha ngheo
DYEAR=1900
DGENRE=Soundtrack
TTITLE0=Mot minh thoi_Phi Nhung
TTITLE1=Vong nhan cuoi_Truong Vu
TTITLE2=Khoc tham_Phi Nhung
TTITLE3=Loi yeu chua ngo_Truong Vu
TTITLE4=Thuong anh mat doi mat cho_Phi Nhung
TTITLE5=Chuyen doi ta_Truong Vu
TTITLE6=Gai nha ngheo_Phi Nhung
TTITLE7=Noi voi nguoi tinh_Truong Vu
TTITLE8=Tren dong song nho_Phi Nhung
TTITLE9=Huong tinh cu_Truong Vu
TTITLE10=Moi anh ve tham que huong_Phi Nhung
TTITLE11=Dua em ve_Truong Vu
TTITLE12=Tien biet_Song ca
EXTD=
EXTT0=
EXTT1=
EXTT2=
EXTT3=
EXTT4=
EXTT5=
EXTT6=
EXTT7=
EXTT8=
EXTT9=
EXTT10=
EXTT11=
EXTT12=
PLAYORDER=
